<svg width="120" height="119" viewBox="0 0 120 119" fill="none" xmlns="http://www.w3.org/2000/svg">
<path d="M60.9969 44.1V76H58.3969V44.1H46.7969V41.7H72.5969V44.1H60.9969Z" fill="white"/>
<path d="M50.7908 67.75V68.4C50.7908 70.6667 51.4242 72.35 52.6908 73.45C53.9908 74.55 55.6742 75.1 57.7408 75.1C59.8075 75.1 61.4742 74.55 62.7408 73.45C64.0408 72.3167 64.6908 70.6333 64.6908 68.4V42.7H67.3908V68.7C67.3908 71.5 66.4742 73.6667 64.6408 75.2C62.8408 76.7333 60.5408 77.5 57.7408 77.5C54.9408 77.5 52.6575 76.7333 50.8908 75.2C49.1575 73.6667 48.2908 71.5 48.2908 68.7V67.75H50.7908Z" fill="white"/>
</svg>
